<svg xmlns="http://www.w3.org/2000/svg"
 width="3000.000000pt" height="3000.000000pt" viewBox="0 0 3000.000000 3000.000000">

<g 
fill="#000000" stroke="none">
<path d="M12593 17079 c-16 -16 -4 -49 18 -49 23 0 62 37 54 50 -8 13 -58 13
-72 -1z"/>
<path d="M17907 14314 c-4 -4 -7 -18 -7 -31 0 -16 6 -23 20 -23 11 0 20 6 20
13 0 19 -24 49 -33 41z"/>
<path d="M17980 14195 c0 -16 6 -25 15 -25 9 0 15 9 15 25 0 16 -6 25 -15 25
-9 0 -15 -9 -15 -25z"/>
<path d="M20030 14201 c0 -19 12 -41 20 -36 10 6 1 45 -11 45 -5 0 -9 -4 -9
-9z"/>
<path d="M17930 14115 c-10 -13 -10 -19 4 -33 9 -10 16 -24 16 -30 0 -6 6 -9
14 -6 8 3 13 11 11 17 -2 7 -6 24 -9 40 -7 30 -18 34 -36 12z"/>
<path d="M18036 14115 c-9 -23 -8 -25 9 -25 17 0 19 9 6 28 -7 11 -10 10 -15
-3z"/>
<path d="M10416 14074 c-3 -9 -6 -30 -6 -47 0 -29 1 -30 15 -11 16 21 20 74 6
74 -5 0 -12 -7 -15 -16z"/>
<path d="M10497 14018 c-6 -23 -1 -38 13 -38 12 0 20 28 14 45 -9 22 -21 18
-27 -7z"/>
<path d="M19132 14018 c-10 -13 -15 -40 -13 -66 1 -10 6 -10 21 -2 18 9 20 8
20 -15 0 -14 5 -25 11 -25 7 0 8 11 4 29 -4 20 -1 38 9 54 9 13 13 27 9 30
-11 11 -50 8 -61 -5z"/>
<path d="M18860 13996 c0 -14 5 -28 10 -31 6 -4 10 7 10 24 0 17 -4 31 -10 31
-5 0 -10 -11 -10 -24z"/>
<path d="M10371 13953 c-1 -28 4 -55 9 -58 12 -8 12 61 0 90 -6 15 -9 6 -9
-32z"/>
<path d="M19947 13955 c-4 -8 -9 -48 -13 -89 -7 -73 -7 -74 -38 -80 -17 -3
-168 -6 -335 -7 -266 -1 -306 1 -322 15 -26 22 -36 20 -45 -6 -6 -21 -7 -21
-20 4 -7 14 -23 28 -34 31 -20 5 -21 3 -15 -48 8 -59 -6 -85 -42 -85 -39 0
-45 14 -48 116 -4 123 -3 116 -14 109 -6 -3 -14 3 -20 12 -9 15 -12 12 -11
-12 0 -3 -6 -18 -15 -35 -9 -18 -15 -56 -15 -99 0 -82 -6 -101 -30 -101 -11 0
-20 -10 -24 -25 -4 -14 -11 -25 -16 -25 -6 0 -10 -16 -10 -35 0 -19 4 -35 9
-35 16 0 22 -62 7 -74 -8 -6 -23 -26 -33 -45 -10 -19 -29 -38 -42 -43 -22 -8
-23 -6 -18 29 3 21 8 48 12 61 6 19 4 22 -18 22 -23 0 -26 -5 -29 -37 -3 -38
-4 -38 -52 -43 -57 -6 -68 -22 -32 -46 37 -23 35 -54 -4 -54 -25 0 -32 6 -44
35 -8 19 -22 35 -31 35 -8 0 -20 10 -26 23 -6 12 -24 29 -42 37 -17 7 -40 23
-52 35 -11 12 -41 36 -67 54 -51 34 -52 35 -49 93 2 29 -4 44 -23 63 -14 14
-31 25 -39 25 -7 0 -19 16 -26 35 -17 47 -48 49 -53 3 -2 -27 -7 -33 -24 -31
-14 2 -24 -4 -27 -17 -7 -27 -57 -28 -57 -2 0 26 10 33 30 22 24 -13 34 24 12
42 -13 11 -14 11 -7 -1 6 -11 4 -13 -9 -8 -10 4 -20 7 -22 7 -2 0 -4 9 -4 20
0 24 -3 24 -41 4 -17 -8 -37 -13 -45 -10 -8 3 -14 1 -14 -5 0 -6 -7 -6 -20 1
-26 14 -25 28 3 32 33 5 30 42 -4 46 -20 2 -28 -2 -33 -20 -5 -18 -8 -20 -15
-9 -6 9 -11 10 -15 2 -4 -6 -14 -11 -22 -11 -8 0 -12 5 -9 10 3 6 1 10 -4 10
-6 0 -11 -4 -11 -10 0 -5 -7 -10 -15 -10 -9 0 -15 -9 -15 -25 0 -14 -4 -25
-10 -25 -5 0 -10 -7 -10 -15 0 -13 -26 -15 -170 -15 -144 0 -170 2 -170 15 0
13 -374 15 -3304 15 l-3305 0 -4 23 c-4 19 -4 18 -6 -5 -1 -26 -4 -28 -46 -28
-25 0 -45 5 -45 10 0 6 -8 10 -17 10 -15 0 -16 -2 -3 -10 13 -8 12 -10 -2 -10
-10 0 -18 5 -18 10 0 6 -20 10 -45 10 -25 0 -45 -4 -45 -10 0 -5 -9 -10 -20
-10 -11 0 -20 5 -20 10 0 6 -3 9 -7 9 -5 -1 -22 -1 -39 0 -25 1 -33 6 -38 27
-9 34 -28 26 -39 -17 -4 -19 -16 -41 -25 -49 -10 -8 -21 -23 -25 -32 -8 -21
-47 -24 -47 -4 0 7 -7 19 -16 26 -8 8 -22 29 -30 49 -12 28 -17 33 -24 21 -5
-8 -10 -32 -10 -53 0 -21 -6 -50 -14 -65 -7 -15 -16 -48 -20 -74 -4 -26 -16
-58 -27 -72 -12 -15 -25 -43 -31 -63 -5 -20 -15 -42 -22 -49 -7 -7 -16 -45
-19 -84 -4 -43 -12 -79 -21 -89 -9 -9 -20 -41 -27 -71 -6 -30 -22 -73 -35 -95
-23 -39 -24 -39 -24 -12 0 15 -4 27 -10 27 -13 0 -13 -21 0 -55 8 -20 6 -32
-5 -48 -8 -12 -15 -36 -15 -54 0 -40 -19 -44 -22 -5 -1 15 -4 2 -7 -28 -5 -45
-10 -57 -29 -65 -20 -9 -22 -15 -16 -52 10 -66 -2 -112 -33 -124 -22 -8 -24
-13 -19 -45 9 -45 1 -70 -24 -77 -18 -5 -20 -14 -20 -105 0 -91 -2 -101 -22
-114 -19 -13 -21 -22 -19 -81 2 -60 0 -68 -23 -88 -25 -22 -26 -25 -26 -156 0
-125 1 -133 19 -133 11 0 22 4 25 9 15 24 327 192 476 256 47 20 99 42 115 50
34 15 145 57 223 86 28 10 76 28 105 38 62 23 168 58 292 95 235 70 312 91
407 111 37 8 75 18 85 23 10 6 51 15 92 21 40 6 82 16 92 21 10 6 52 15 92 20
40 5 93 16 118 24 24 8 80 20 124 25 44 6 102 17 129 26 27 8 68 15 90 15 23
0 77 9 121 19 44 11 116 22 160 26 44 4 105 13 135 21 30 8 114 19 185 24 72
5 146 14 165 20 19 6 103 15 185 21 83 5 190 16 239 25 50 8 185 19 300 24
116 5 245 15 286 22 108 19 2080 19 2190 0 41 -7 174 -17 295 -22 121 -6 254
-17 297 -25 42 -8 132 -17 200 -20 67 -4 157 -13 198 -21 41 -9 129 -19 195
-24 66 -5 145 -15 175 -23 30 -8 93 -18 140 -22 47 -4 118 -16 159 -26 41 -11
96 -19 122 -19 27 0 68 -7 92 -15 24 -8 80 -20 123 -26 43 -6 110 -19 149 -30
38 -10 84 -19 103 -19 18 0 48 -6 66 -14 19 -8 65 -19 103 -25 39 -6 85 -17
104 -25 19 -8 57 -17 84 -21 28 -4 73 -15 100 -25 28 -9 71 -20 97 -24 26 -4
50 -11 53 -15 2 -5 22 -12 42 -16 21 -3 72 -17 113 -31 41 -13 107 -34 145
-46 66 -20 136 -44 265 -91 81 -29 127 -47 313 -126 22 -9 104 -49 184 -88 80
-40 152 -73 160 -73 9 0 13 13 13 40 0 29 5 42 20 50 19 10 20 21 20 344 0
331 -5 440 -21 415 -12 -21 -22 35 -16 94 6 61 -17 253 -33 272 -6 7 -15 52
-21 100 -7 66 -14 91 -29 104 -17 14 -20 31 -22 136 -3 117 -4 120 -25 119
-22 -1 -23 3 -23 79 l0 80 -30 -29 c-16 -16 -30 -37 -30 -47 0 -45 -40 -73
-40 -29 0 30 -21 92 -31 92 -5 0 -14 -12 -19 -26 -16 -40 -50 -84 -66 -84 -17
0 -20 76 -3 82 11 4 21 151 12 175 -7 17 -19 17 -26 -2z m-1837 -200 c0 -20
-5 -25 -25 -25 -20 0 -25 5 -25 25 0 20 5 25 25 25 20 0 25 -5 25 -25z m183
-61 c6 -35 1 -64 -12 -64 -11 0 -51 65 -51 83 0 12 8 17 29 17 25 0 29 -4 34
-36z m-7903 -54 c0 -38 -4 -50 -15 -50 -11 0 -15 11 -15 43 0 24 3 47 7 50 16
17 23 3 23 -43z m140 35 c0 -20 -39 -40 -53 -26 -7 7 -6 15 3 26 16 19 50 20
50 0z m-52 -122 c-4 -78 -23 -97 -33 -31 -7 45 7 98 25 98 7 0 10 -24 8 -67z
m9637 7 c3 -6 3 -30 -1 -55 -7 -50 -27 -56 -32 -11 -7 54 15 96 33 66z m-9775
-88 c0 -13 -30 -52 -41 -52 -14 0 -11 22 8 42 17 19 33 24 33 10z m90 -97 c0
-8 -7 -15 -15 -15 -16 0 -20 12 -8 23 11 12 23 8 23 -8z m-433 -602 c-3 -10
-5 -4 -5 12 0 17 2 24 5 18 2 -7 2 -21 0 -30z"/>
<path d="M20071 13943 c-9 -10 -12 -28 -8 -55 7 -50 15 -58 33 -34 30 42 8
124 -25 89z"/>
<path d="M10473 13943 c-18 -7 -16 -33 2 -33 8 0 15 9 15 20 0 11 -1 20 -2 19
-2 0 -9 -3 -15 -6z"/>
<path d="M19151 13884 c0 -11 3 -14 6 -6 3 7 2 16 -1 19 -3 4 -6 -2 -5 -13z"/>
<path d="M10400 13810 c0 -53 2 -60 20 -60 18 0 20 7 20 60 0 53 -2 60 -20 60
-18 0 -20 -7 -20 -60z"/>
<path d="M18200 13836 c0 -9 5 -16 10 -16 6 0 10 4 10 9 0 6 -4 13 -10 16 -5
3 -10 -1 -10 -9z"/>
<path d="M10235 13710 c-3 -5 -1 -10 4 -10 6 0 11 5 11 10 0 6 -2 10 -4 10 -3
0 -8 -4 -11 -10z"/>
<path d="M18475 13580 c3 -5 8 -10 11 -10 2 0 4 5 4 10 0 6 -5 10 -11 10 -5 0
-7 -4 -4 -10z"/>
<path d="M20307 13439 c4 -13 9 -17 15 -11 11 11 3 32 -12 32 -4 0 -6 -9 -3
-21z"/>
<path d="M10104 13275 c-4 -9 -2 -21 3 -26 7 -7 12 -3 16 10 6 25 -11 39 -19
16z"/>
<path d="M20351 13010 l2 -55 7 45 c4 25 4 49 -1 55 -5 5 -8 -13 -8 -45z"/>
<path d="M8525 10889 c-10 -15 4 -122 26 -208 10 -41 19 -86 19 -99 0 -13 9
-54 19 -90 11 -37 26 -94 34 -127 48 -192 139 -472 188 -581 11 -23 19 -45 19
-49 0 -5 9 -28 20 -52 11 -24 30 -64 41 -90 41 -92 139 -289 180 -363 23 -41
49 -88 58 -105 28 -50 186 -292 253 -387 271 -381 626 -747 1008 -1039 127
-98 391 -279 405 -279 4 0 21 -11 39 -25 18 -14 37 -25 41 -25 5 0 16 -6 24
-14 9 -7 48 -31 86 -51 39 -21 88 -49 110 -61 56 -32 243 -124 350 -174 50
-23 113 -52 141 -66 28 -13 58 -24 65 -24 8 0 19 -4 25 -10 5 -5 34 -18 64
-29 30 -11 87 -31 125 -46 122 -46 178 -66 240 -85 33 -10 98 -31 145 -45 47
-15 110 -32 140 -39 30 -8 80 -20 110 -29 84 -24 177 -47 260 -62 41 -8 100
-21 130 -30 30 -8 69 -15 85 -15 17 0 57 -7 90 -15 32 -9 104 -22 159 -30 56
-7 148 -20 206 -28 179 -26 467 -56 645 -68 94 -6 222 -15 285 -19 150 -11
1055 -11 1230 0 345 21 494 33 610 46 69 9 172 20 230 25 58 5 139 16 180 24
41 7 98 16 125 19 64 8 254 42 370 66 50 11 106 22 125 25 32 5 78 17 250 61
36 9 90 22 120 29 30 7 93 25 140 40 47 14 108 32 135 39 28 7 64 20 80 28 17
8 45 18 63 21 19 4 48 13 65 21 18 8 52 21 77 29 25 8 70 25 100 37 30 12 78
30 106 40 28 10 60 23 70 28 10 6 42 20 69 32 244 107 539 260 705 368 213
137 265 174 495 353 252 196 614 561 827 835 86 110 98 127 182 252 88 130 92
136 99 152 4 8 21 35 37 60 16 25 36 59 44 75 9 17 29 53 45 80 81 141 217
437 286 625 58 157 75 212 129 400 53 188 66 241 66 263 0 13 7 46 15 73 8 27
22 96 30 154 10 67 20 109 30 116 22 16 18 41 -7 48 -13 3 -811 6 -1774 6
l-1752 0 -85 -119 c-188 -260 -401 -475 -605 -610 -37 -24 -79 -52 -94 -63
-15 -10 -31 -18 -36 -18 -5 0 -20 -8 -33 -19 -13 -10 -41 -23 -61 -30 -20 -7
-42 -19 -48 -27 -7 -7 -20 -14 -29 -14 -9 0 -38 -12 -66 -25 -27 -14 -56 -25
-63 -25 -6 0 -29 -9 -49 -20 -21 -11 -49 -20 -62 -20 -13 0 -32 -7 -42 -16
-10 -9 -40 -19 -66 -22 -26 -3 -61 -13 -78 -24 -16 -10 -48 -18 -70 -18 -22 0
-55 -9 -73 -20 -19 -12 -50 -20 -75 -20 -23 0 -60 -9 -82 -19 -22 -10 -76 -21
-120 -25 -53 -5 -86 -13 -98 -24 -15 -14 -44 -18 -145 -21 -103 -3 -129 -6
-138 -20 -11 -15 -79 -16 -743 -19 -714 -2 -783 0 -766 28 3 5 -56 10 -131 12
-110 2 -138 6 -147 19 -9 11 -36 17 -95 22 -53 3 -92 11 -109 22 -14 9 -53 20
-87 23 -37 3 -70 12 -85 23 -13 11 -40 19 -60 19 -20 0 -53 9 -74 20 -20 11
-47 20 -59 20 -13 0 -37 8 -53 18 -17 11 -47 22 -67 26 -20 3 -41 13 -48 21
-7 8 -20 15 -29 15 -14 0 -103 39 -141 61 -8 5 -33 18 -55 29 -22 11 -62 33
-90 49 -27 17 -57 33 -65 37 -98 49 -365 260 -486 385 -81 84 -222 256 -242
295 -6 12 -26 38 -43 58 l-33 36 -1752 0 c-1217 0 -1755 -3 -1759 -11z m6615
-1248 c0 -10 -74 -21 -149 -21 -81 0 -161 11 -155 21 7 12 304 12 304 0z"/>
</g>
</svg>
