<?xml version="1.0" standalone="no"?>
<!DOCTYPE svg PUBLIC "-//W3C//DTD SVG 20010904//EN"
 "http://www.w3.org/TR/2001/REC-SVG-20010904/DTD/svg10.dtd">
<svg version="1.0" xmlns="http://www.w3.org/2000/svg"
 width="5000.000000pt" height="3000.000000pt" viewBox="0 0 5000.000000 3000.000000"
 preserveAspectRatio="xMidYMid meet">

<g transform="translate(0.000000,3000.000000) scale(0.100000,-0.100000)"
fill="#000000" stroke="none">
<path d="M41066 19305 c-9 -26 -7 -32 5 -12 6 10 9 21 6 23 -2 3 -7 -2 -11
-11z"/>
<path d="M43070 19301 c0 -6 4 -12 8 -15 5 -3 9 1 9 9 0 8 -4 15 -9 15 -4 0
-8 -4 -8 -9z"/>
<path d="M43260 19269 c0 -20 -4 -21 -95 -17 -71 2 -95 0 -95 -9 0 -26 -20
-12 -21 15 0 24 -1 25 -9 7 -5 -11 -15 -40 -21 -65 -7 -26 -14 -38 -16 -28 -4
14 -7 15 -18 5 -7 -6 -11 -15 -9 -19 3 -4 -4 -6 -15 -5 -11 0 -18 5 -15 9 3 4
-7 15 -21 24 -18 11 -25 24 -22 36 3 10 1 16 -3 13 -5 -3 -12 -1 -15 5 -5 8
-11 7 -21 -1 -12 -10 -17 -9 -27 1 -10 10 -9 11 2 5 9 -5 12 -4 7 3 -4 6 -14
8 -23 5 -11 -4 -14 -3 -9 5 5 8 1 10 -11 5 -10 -4 -20 -9 -23 -12 -3 -3 -383
-4 -845 -1 l-840 5 -19 -25 c-10 -14 -16 -18 -13 -9 3 9 1 22 -4 30 -7 11 -9
9 -9 -8 0 -26 -20 -73 -31 -73 -4 0 -5 -10 -1 -22 3 -13 1 -19 -5 -15 -7 5 -9
0 -6 -13 3 -11 1 -20 -4 -20 -6 0 -15 -17 -21 -38 -25 -83 -52 -198 -52 -223
l0 -27 64 34 c247 132 661 204 1166 204 483 0 905 -70 1140 -190 35 -18 44
-19 52 -8 16 24 6 218 -15 298 -10 41 -19 84 -19 95 1 20 1 20 -14 1 -13 -19
-14 -19 -14 -1 0 18 -1 18 -15 -1 -14 -18 -14 -17 -9 14 4 17 4 32 0 32 -3 0
-6 -9 -6 -21z m-2173 -81 c-3 -8 -6 -5 -6 6 -1 11 2 17 5 13 3 -3 4 -12 1 -19z"/>
<path d="M41071 19254 c0 -11 3 -14 6 -6 3 7 2 16 -1 19 -3 4 -6 -2 -5 -13z"/>
<path d="M40640 18573 c0 -33 50 -207 78 -268 228 -514 742 -769 1497 -741
244 8 416 36 590 93 423 139 715 455 799 863 l13 65 -405 3 -405 2 -16 -22
c-8 -13 -39 -48 -69 -80 -67 -71 -162 -122 -287 -153 -84 -21 -119 -24 -307
-26 -190 -1 -222 1 -293 20 -156 42 -278 116 -352 212 l-37 49 -403 0 c-377 0
-403 -1 -403 -17z"/>
<path d="M6130 15545 l0 -2695 520 0 520 0 0 2215 0 2215 900 0 900 0 0 -827
c0 -456 3 -1452 7 -2215 l6 -1388 514 0 513 0 0 2695 0 2695 -1940 0 -1940 0
0 -2695z"/>
<path d="M13180 16920 c-364 -45 -682 -191 -970 -444 l-85 -75 -3 214 -2 215
-495 0 -495 0 0 -2720 0 -2720 490 0 490 0 1 478 c1 262 5 685 8 939 l6 462
100 -85 c122 -105 279 -211 400 -269 427 -208 969 -215 1428 -19 357 153 714
481 926 853 226 397 313 909 245 1441 -64 501 -269 914 -618 1247 -266 254
-563 405 -921 468 -107 19 -400 28 -505 15z m179 -925 c226 -37 394 -124 564
-292 142 -140 235 -305 290 -512 30 -112 31 -124 31 -336 1 -241 -7 -295 -66
-465 -109 -313 -378 -578 -683 -673 -181 -57 -430 -62 -615 -14 -404 105 -710
447 -784 877 -69 407 18 791 241 1055 245 291 624 424 1022 360z"/>
<path d="M17730 16919 c-764 -77 -1482 -646 -1733 -1374 -149 -433 -152 -953
-6 -1390 226 -680 835 -1220 1533 -1360 701 -140 1430 73 1919 560 317 316
519 719 594 1180 27 167 24 479 -6 648 -78 444 -268 814 -575 1123 -447 448
-1091 676 -1726 613z m429 -944 c465 -76 803 -430 875 -917 82 -552 -146
-1047 -584 -1268 -163 -82 -331 -115 -544 -107 -300 11 -524 111 -725 322
-131 138 -213 288 -263 484 -26 99 -31 141 -35 286 -8 257 21 422 107 603 130
273 376 490 644 567 155 45 360 56 525 30z"/>
<path d="M28404 16919 c-482 -46 -889 -236 -1223 -568 -329 -328 -514 -699
-588 -1181 -24 -162 -25 -530 0 -690 35 -228 87 -398 178 -589 105 -219 230
-392 415 -571 326 -316 703 -489 1199 -551 143 -18 501 -15 659 5 599 77 1048
333 1393 794 l42 57 -32 16 c-18 9 -206 99 -420 199 l-387 182 -57 -52 c-185
-169 -430 -285 -688 -325 -142 -23 -397 -16 -525 14 -342 79 -599 283 -741
586 -38 81 -89 248 -89 293 l0 22 1607 0 1606 0 -6 233 c-8 317 -39 518 -117
762 -177 552 -597 1003 -1136 1220 -306 123 -729 179 -1090 144z m469 -854
c360 -54 672 -278 816 -587 22 -45 43 -95 46 -110 l7 -28 -1081 0 -1081 0 11
27 c42 110 198 342 286 424 237 222 628 330 996 274z"/>
<path d="M37214 16919 c-482 -46 -889 -236 -1223 -568 -329 -328 -514 -699
-588 -1181 -24 -162 -25 -530 0 -690 35 -228 87 -398 178 -589 105 -219 230
-392 415 -571 326 -316 703 -489 1199 -551 143 -18 501 -15 659 5 599 77 1048
333 1393 794 l42 57 -32 16 c-18 9 -206 99 -420 199 l-387 182 -57 -52 c-185
-169 -430 -285 -688 -325 -142 -23 -397 -16 -525 14 -342 79 -599 283 -741
586 -38 81 -89 248 -89 293 l0 22 1607 0 1606 0 -6 233 c-8 317 -39 518 -117
762 -177 552 -597 1003 -1136 1220 -306 123 -729 179 -1090 144z m469 -854
c360 -54 672 -278 816 -587 22 -45 43 -95 46 -110 l7 -28 -1081 0 -1081 0 11
27 c42 110 198 342 286 424 237 222 628 330 996 274z"/>
<path d="M20920 14853 c-271 -1088 -495 -1984 -497 -1990 -4 -10 96 -13 480
-13 l485 0 21 88 c11 48 129 560 261 1137 133 578 245 1064 249 1080 8 27 61
-75 590 -1137 l581 -1168 202 0 203 0 585 1151 c322 633 590 1158 595 1166 8
11 79 -282 276 -1149 l265 -1163 488 -3 c389 -2 487 0 483 10 -2 7 -226 903
-497 1991 l-493 1977 -331 -2 -330 -3 -608 -1250 c-334 -687 -610 -1249 -614
-1248 -3 1 -284 564 -623 1250 l-617 1248 -330 3 -330 2 -494 -1977z"/>
<path d="M31200 16355 l0 -475 695 0 695 0 0 -1515 0 -1515 500 0 500 0 0
1515 0 1515 660 0 660 0 0 475 0 475 -1855 0 -1855 0 0 -475z"/>
<path d="M40370 15058 c0 -975 3 -1871 7 -1990 l6 -218 258 0 258 0 773 888
c424 488 871 1001 992 1141 l221 253 3 -1141 2 -1141 485 0 485 0 0 1218 c0
669 3 1565 7 1990 l6 772 -244 0 -244 0 -1015 -1165 c-558 -640 -1017 -1164
-1020 -1165 -3 0 -4 524 -2 1165 l4 1165 -491 0 -491 0 0 -1772z"/>
</g>
</svg>
